<?xml version="1.0" encoding="utf-8"?>
<!-- Generator: Adobe Illustrator 17.0.2, SVG Export Plug-In . SVG Version: 6.00 Build 0)  -->
<!DOCTYPE svg PUBLIC "-//W3C//DTD SVG 1.1//EN" "http://www.w3.org/Graphics/SVG/1.1/DTD/svg11.dtd">
<svg version="1.1" id="lab" xmlns="http://www.w3.org/2000/svg" xmlns:xlink="http://www.w3.org/1999/xlink" x="0px" y="0px"
	 width="64px" height="64px" viewBox="0 0 64 64" enable-background="new 0 0 64 64" xml:space="preserve">
<g id="lab">
	<path fill="#000000" d="M16.677,49.32l-8.518-8.518l-0.006-0.017c-0.427-0.439-0.877-0.877-1.321-1.316
		c-1.906-1.872-3.75-3.688-4.442-5.555c-0.911-2.463-0.18-4.565,3.722-6.033v-0.006l24.694-10.694l0.022-0.006l2.305-0.956
		c-0.444-0.798-0.669-1.692-0.669-2.581c0-1.361,0.517-2.716,1.552-3.75l2.165-2.165c1.035-1.035,2.395-1.552,3.75-1.552
		c1.361,0,2.716,0.517,3.75,1.552L58.266,22.31c1.035,1.035,1.552,2.395,1.552,3.75c0,1.361-0.517,2.716-1.552,3.75l-2.165,2.165
		c-1.035,1.035-2.395,1.552-3.75,1.552c-0.894,0-1.782-0.225-2.586-0.669l-0.956,2.305l-0.006,0.022L38.109,59.879h-0.006
		c-1.473,3.902-3.57,4.633-6.033,3.722c-1.867-0.692-3.677-2.536-5.555-4.442c-0.439-0.444-0.877-0.888-1.316-1.321l-0.017-0.006
		l-8.518-8.518L16.677,49.32z M59.188,5.341c0-0.826-0.315-1.653-0.945-2.283s-1.456-0.945-2.283-0.945s-1.653,0.315-2.283,0.945
		s-0.945,1.456-0.945,2.283s0.315,1.653,0.945,2.283s1.456,0.945,2.283,0.945s1.653-0.315,2.283-0.945S59.188,6.168,59.188,5.341z
		 M59.733,1.563c1.04,1.04,1.563,2.406,1.563,3.778c0,1.366-0.523,2.732-1.563,3.778c-1.04,1.04-2.406,1.563-3.773,1.563
		s-2.732-0.523-3.778-1.563c-1.04-1.04-1.563-2.406-1.563-3.778c0-1.366,0.523-2.732,1.563-3.778C53.222,0.523,54.589,0,55.96,0
		C57.327,0,58.693,0.523,59.733,1.563z M58.075,13.438c0.731,0.731,0.731,1.912,0,2.643s-1.912,0.731-2.643,0s-0.731-1.912,0-2.643
		S57.344,12.707,58.075,13.438z M24.694,23.665c2.193,0.956,4.509,1.467,6.837,1.973c4.976,1.091,9.997,2.193,14.365,7.393
		l2.564-6.173l2.631,2.631c0.349,0.343,0.804,0.517,1.265,0.517c0.461,0,0.916-0.174,1.265-0.517l2.165-2.165
		c0.343-0.349,0.517-0.804,0.517-1.265s-0.174-0.916-0.517-1.259L41.202,10.216c-0.343-0.349-0.804-0.517-1.265-0.517
		c-0.461,0-0.916,0.174-1.265,0.517l-2.165,2.165c-0.349,0.343-0.517,0.804-0.517,1.265s0.174,0.916,0.517,1.265l2.626,2.631
		l-3.52,1.462l0,0L32.2,20.421v0.006l-7.512,3.255L24.694,23.665z"/>
	<path fill="#FFFFFF" d="M38.177,34.01c1.04,1.04,1.563,2.406,1.563,3.778c0,1.366-0.523,2.732-1.563,3.778
		c-1.04,1.04-2.406,1.563-3.773,1.563s-2.732-0.523-3.778-1.563c-1.04-1.04-1.563-2.406-1.563-3.778
		c0-1.366,0.523-2.732,1.563-3.778c1.04-1.04,2.406-1.563,3.778-1.563C35.77,32.447,37.137,32.97,38.177,34.01z M37.631,37.788
		c0-0.826-0.315-1.653-0.945-2.283c-0.63-0.63-1.456-0.945-2.283-0.945s-1.653,0.315-2.283,0.945
		c-0.63,0.63-0.945,1.456-0.945,2.283s0.315,1.653,0.945,2.283c0.63,0.63,1.456,0.945,2.283,0.945s1.653-0.315,2.283-0.945
		C37.317,39.441,37.631,38.615,37.631,37.788z"/>
	<path fill="#FFFFFF" d="M26.24,29.585c0.765,0.765,1.147,1.771,1.147,2.772c0,1.001-0.382,2.007-1.147,2.772
		c-0.765,0.765-1.771,1.147-2.772,1.147c-1.006,0-2.007-0.382-2.772-1.147c-0.765-0.765-1.147-1.771-1.147-2.772
		c0-1.001,0.382-2.007,1.147-2.772c0.765-0.765,1.771-1.147,2.772-1.147S25.476,28.821,26.24,29.585z"/>
	<path fill="#FFFFFF" d="M28.062,43.355c0.731,0.731,0.731,1.912,0,2.643c-0.731,0.731-1.912,0.731-2.643,0s-0.731-1.912,0-2.643
		S27.331,42.624,28.062,43.355z"/>
</g>
</svg>
