<?xml version="1.0" encoding="utf-8"?>
<!-- Generator: Adobe Illustrator 16.0.4, SVG Export Plug-In . SVG Version: 6.00 Build 0)  -->
<!DOCTYPE svg PUBLIC "-//W3C//DTD SVG 1.1//EN" "http://www.w3.org/Graphics/SVG/1.1/DTD/svg11.dtd">
<svg version="1.1" id="link" xmlns="http://www.w3.org/2000/svg" xmlns:xlink="http://www.w3.org/1999/xlink" x="0px" y="0px"
	 width="32.03px" height="32.03px" viewBox="0 0 32.03 32.03" enable-background="new 0 0 32.03 32.03" xml:space="preserve">
<path fill="#ddd" d="M29.794,2.333l-0.126-0.126c-2.941-2.942-7.756-2.942-10.697,0l-6.817,6.816c-2.942,2.941-2.942,7.755,0,10.696l0.126,0.126
	c0.245,0.245,0.505,0.467,0.773,0.671l2.495-2.494c-0.291-0.173-0.566-0.378-0.816-0.628l-0.126-0.125
	c-1.597-1.598-1.597-4.196,0-5.794l6.816-6.816c1.598-1.597,4.196-1.597,5.793,0l0.126,0.126c1.597,1.597,1.597,4.197,0,5.793
	l-3.084,3.084c0.535,1.322,0.789,2.73,0.767,4.137l4.77-4.769C32.734,10.088,32.734,5.274,29.794,2.333z M19.721,12.154
	c-0.246-0.245-0.506-0.467-0.773-0.67l-2.495,2.494c0.291,0.173,0.565,0.378,0.815,0.628l0.127,0.126
	c1.597,1.597,1.597,4.195,0,5.793l-6.816,6.816c-1.597,1.598-4.196,1.598-5.793,0l-0.126-0.126c-1.597-1.597-1.597-4.196,0-5.793
	l3.084-3.084c-0.535-1.322-0.789-2.73-0.767-4.137l-4.769,4.769c-2.942,2.942-2.942,7.756,0,10.698l0.126,0.126
	c2.942,2.942,7.756,2.942,10.698,0l6.816-6.816c2.941-2.941,2.941-7.756,0-10.697L19.721,12.154z"/>
</svg>
