<?xml version="1.0" encoding="utf-8"?>
<!-- Generator: Adobe Illustrator 16.0.0, SVG Export Plug-In . SVG Version: 6.00 Build 0)  -->
<!DOCTYPE svg PUBLIC "-//W3C//DTD SVG 1.1//EN" "http://www.w3.org/Graphics/SVG/1.1/DTD/svg11.dtd">
<svg version="1.1" id="Layer_1" xmlns="http://www.w3.org/2000/svg" xmlns:xlink="http://www.w3.org/1999/xlink" x="0px" y="0px"
	 width="512px" height="512px" viewBox="0 0 512 512" enable-background="new 0 0 512 512" xml:space="preserve">
<g>
	<g>
		<path d="M256,0C114.625,0,0,114.609,0,256c0,141.375,114.625,256,256,256s256-114.625,256-256C512,114.609,397.375,0,256,0z
			 M256,448c-106.031,0-192-85.969-192-192S149.969,64,256,64c106.03,0,192,85.969,192,192S362.031,448,256,448z M160,320h64V192
			h-64V320z M288,320h64V192h-64V320z"/>
	</g>
</g>
</svg>
